<?xml version="1.0" encoding="utf-8"?>
<!-- Generator: Adobe Illustrator 25.3.1, SVG Export Plug-In . SVG Version: 6.00 Build 0)  -->
<svg version="1.1" id="Lager_1" xmlns="http://www.w3.org/2000/svg" xmlns:xlink="http://www.w3.org/1999/xlink" x="0px" y="0px"
     viewBox="0 0 272.6 420.2" style="enable-background:new 0 0 272.6 420.2;" xml:space="preserve">
<style type="text/css">
	.st0{fill:#FFFDF3;}
	.st1{fill:#FFFDF3;stroke:#FFFDF3;stroke-miterlimit:10;}
	.st2{fill:none;}
	.st3{font-family:'Europa-Bold';}
	.st4{font-size:43px;}
</style>
  <g>
	<line class="st0" x1="158.2" y1="133.6" x2="176.2" y2="119.5"/>

    <rect x="155.8" y="125.8" transform="matrix(0.7864 -0.6178 0.6178 0.7864 -42.4784 130.3411)" class="st0" width="22.8" height="1.5"/>
</g>
  <g>
	<line class="st0" x1="161.6" y1="140.4" x2="180.3" y2="125.7"/>

    <rect x="159" y="132.3" transform="matrix(0.7864 -0.6178 0.6178 0.7864 -45.6811 134.0138)" class="st0" width="23.8" height="1.5"/>
</g>
  <g>
	<line class="st0" x1="163.3" y1="148.3" x2="182.8" y2="133"/>

    <rect x="160.7" y="139.9" transform="matrix(0.7864 -0.6178 0.6178 0.7864 -49.9298 136.9545)" class="st0" width="24.8" height="1.5"/>
</g>
  <g>
	<line class="st0" x1="163.3" y1="158.2" x2="184.1" y2="141.9"/>

    <rect x="160.5" y="149.3" transform="matrix(0.7864 -0.6178 0.6178 0.7864 -55.6139 139.3599)" class="st0" width="26.4" height="1.5"/>
</g>
  <g>
	<line class="st0" x1="165.8" y1="166.4" x2="183.9" y2="152.8"/>

    <rect x="163.5" y="158.8" transform="matrix(0.7986 -0.6019 0.6019 0.7986 -60.8315 137.3719)" class="st0" width="22.6" height="1.5"/>
</g>
  <circle class="st1" cx="119" cy="101.7" r="0.8"/>
  <circle class="st1" cx="124.8" cy="98.5" r="0.8"/>
  <circle class="st1" cx="112.3" cy="103.3" r="0.8"/>
  <circle class="st1" cx="117.6" cy="105.7" r="0.8"/>
  <circle class="st1" cx="106.5" cy="105.7" r="0.8"/>
  <circle class="st1" cx="100.7" cy="108.1" r="0.8"/>
  <circle class="st1" cx="94.4" cy="105.7" r="0.8"/>
  <circle class="st1" cx="110.4" cy="108.1" r="0.8"/>
  <circle class="st1" cx="116.8" cy="109.6" r="0.8"/>
  <circle class="st1" cx="110.4" cy="113.6" r="0.8"/>
  <circle class="st1" cx="123.8" cy="104" r="0.8"/>
  <circle class="st1" cx="130.5" cy="102.5" r="0.8"/>
  <circle class="st1" cx="123" cy="108.1" r="0.8"/>
  <circle class="st1" cx="121.5" cy="112.8" r="0.8"/>
  <circle class="st1" cx="128.9" cy="106.5" r="0.8"/>
  <circle class="st1" cx="127.5" cy="111.1" r="0.8"/>
  <circle class="st1" cx="135.1" cy="113.6" r="0.8"/>
  <circle class="st1" cx="129.7" cy="115.3" r="0.8"/>
  <circle class="st1" cx="137.1" cy="104.8" r="0.8"/>
  <circle class="st1" cx="144.6" cy="104.8" r="0.8"/>
  <circle class="st1" cx="136.6" cy="100.2" r="0.8"/>
  <circle class="st1" cx="134.3" cy="108.8" r="0.8"/>
  <circle class="st1" cx="140.9" cy="109.6" r="0.8"/>
  <circle class="st1" cx="140.9" cy="115.7" r="0.8"/>
  <circle class="st1" cx="146.7" cy="110.4" r="0.8"/>
  <circle class="st1" cx="151.3" cy="107.3" r="0.8"/>
  <circle class="st1" cx="153.1" cy="112.8" r="0.8"/>
  <circle class="st1" cx="160.8" cy="113.6" r="0.8"/>
  <circle class="st1" cx="157" cy="117.2" r="0.8"/>
  <circle class="st1" cx="151.8" cy="120.3" r="0.8"/>
  <circle class="st1" cx="157.7" cy="123.1" r="0.8"/>
  <circle class="st1" cx="159.6" cy="108.1" r="0.8"/>
  <circle class="st1" cx="147.4" cy="116" r="0.8"/>
  <circle class="st1" cx="144.6" cy="120.3" r="0.8"/>
  <circle class="st1" cx="137.1" cy="119.5" r="0.8"/>
  <rect x="59" y="384.6" class="st2" width="157.7" height="39.8"/>
  <text transform="matrix(1 0 0 1 58.9985 417.0669)" class="st0 st3 st4">GUIDEN</text>
  <path class="st0" d="M206.4,371.4c-0.6,0-1.1-0.3-1.5-0.8c-0.5-0.8-0.3-1.9,0.5-2.4c37-23.7,59.1-64,59.1-107.8V156.2
	c0-19.5-4.3-38.2-12.7-55.6c-1.7-3.6-3.7-7.2-5.7-10.6c-0.5-0.8-0.2-1.9,0.6-2.4c0.8-0.5,1.9-0.2,2.4,0.6c2.1,3.5,4.1,7.2,5.9,10.9
	c8.6,17.9,13,37.1,13,57.1v104.1c0,45-22.7,86.5-60.7,110.8C207.1,371.3,206.8,371.4,206.4,371.4z"/>
  <path class="st0" d="M20.3,101.5c-0.2,0-0.9-0.4-1.1-0.5c-0.7-0.4-1.1-1.3-0.7-2c1.7-3.5,3.6-7,5.7-10.4c0.4-0.7,1.8-0.9,2.5-0.5
	c0.7,0.4,0.9,1.7,0.5,2.4c-2,3.3-3.8,6.7-5.5,10.2C21.4,101.2,20.8,101.5,20.3,101.5z"/>
  <path class="st0" d="M155.4,313.2c-44.2,0-76.4-16.4-76.7-16.6l-0.6-0.3l-0.2-0.6c-3.6-8.8-5.6-15.5-5.2-23.5
	c0.1-2.9,0.5-4.3,0.9-5.5c0.3-1.1,0.6-2,0.7-4.2c0.2-5.8,0.4-11.2,6-18.1c3.9-20,0.4-39.4,0.2-40.5c-18.5-69.4,1.6-96,2.5-97
	l0.7-0.8l1,0.2c2,0.4,48.9,9.7,63.6,15.6c13.6,5.4,15.9,17.1,17.5,24.8c0.2,1.1,0.4,2.2,0.7,3.1l0.1,0.5l-0.1,0.5
	c-1.5,5-0.5,12.8,7.3,18.5l0.8,0.6l0,0.9c-0.2,5.2,1.4,6.5,3.4,8.2c3.4,2.8,5.9,5.7,4.8,15.2c2.7,38.8,1.1,114.6,1.1,115.4l0,1.5
	l-1.4,0.2C172.8,312.6,163.9,313.2,155.4,313.2z M80.8,293.7c5.3,2.6,47.2,21.8,99.3,14.1c0.2-10.8,1.4-78.1-1.1-113.7l0-0.2l0-0.2
	c1-8.5-1.1-10.3-3.5-12.3c-2.2-1.8-4.8-3.9-4.7-10.1c-8.4-6.5-9.6-15.4-8-21.3c-0.2-0.9-0.4-1.8-0.6-2.8
	c-1.5-7.4-3.5-17.5-15.4-22.2c-13.2-5.3-54.4-13.7-61.8-15.2c-3.2,5-17.5,32.4-1.3,93.2l0,0.1c0.2,0.8,4,21-0.3,42.4l-0.1,0.4
	l-0.3,0.3c-5.1,6.1-5.3,10.6-5.5,16.3c-0.1,2.6-0.4,3.8-0.8,5c-0.3,1.1-0.6,2.2-0.7,4.7C75.8,279.5,77.6,285.7,80.8,293.7z"/>
  <path class="st0" d="M181.8,311.1v-1.8l-0.1-1.7c0,0,3.5-0.3,11.5-6.2c0.3-0.2,0.6-1.1,0.8-1.9c0.5-1.6,1-3.5,2.8-5
	c3-2.5,5.4-2.2,6.7-2.1c0.1,0,0.2,0,0.3,0c2.6-2.1,4.3-3.7,6.5-6.1c-1-7.4-8.5-64.7-16.1-102.5c-0.3-1.5-0.4-3.1-0.5-4.6
	c-0.2-2.7-0.3-5.3-1.7-6.8c-3.6-4-3.4-7.2-3.2-9.7c0-0.8,0.1-1.4,0-2.1c-7.7-3.2-6.4-10.9-5.7-15l0-0.3c-0.3-1-0.8-3.5-1-8.4
	c-0.2-5.9-4.4-35.3-63.7-39.3l-34,12l-1.2-3.3l34.7-12.2l0.4,0c62.6,4.1,67,36.3,67.3,42.7c0.2,5.6,0.9,7.9,0.9,7.9l0.1,0.4
	l-0.2,1.1c-0.9,5.4-1.2,9.6,4.3,11.5l0.9,0.3l0.2,0.9c0.4,1.4,0.3,2.8,0.2,4.1c-0.2,2.3-0.3,4.3,2.3,7.1c2.2,2.4,2.4,5.7,2.6,8.9
	c0.1,1.4,0.2,2.9,0.4,4.2c8.2,40.4,16.2,102.9,16.3,103.5l0.1,0.8l-0.5,0.6c-2.7,3-4.6,4.8-7.7,7.3c-0.9,0.7-1.9,0.6-2.7,0.5
	c-1.1-0.1-2.3-0.3-4.1,1.3c-1,0.8-1.3,2-1.7,3.3c-0.4,1.4-0.8,2.8-2.1,3.7C186.4,310.9,182.3,311.1,181.8,311.1z"/>
  <rect x="151.6" y="118.5" transform="matrix(0.8018 -0.5976 0.5976 0.8018 -39.5556 121.2072)" class="st0" width="22.7" height="3.5"/>
  <rect x="169.8" y="163.8" transform="matrix(0.7889 -0.6145 0.6145 0.7889 -63.1218 145.415)" class="st0" width="20.6" height="1.5"/>
  <rect x="173.5" y="171.7" transform="matrix(0.7943 -0.6075 0.6075 0.7943 -67.0985 146.6649)" class="st0" width="19.2" height="1.5"/>
  <rect x="178.1" y="177.5" transform="matrix(0.7943 -0.6075 0.6075 0.7943 -69.6777 150.6988)" class="st0" width="19.2" height="1.5"/>
  <rect x="179.2" y="185.4" transform="matrix(0.7943 -0.6075 0.6075 0.7943 -74.2229 152.9656)" class="st0" width="19.2" height="1.5"/>
  <rect x="179.7" y="193.6" transform="matrix(0.7943 -0.6075 0.6075 0.7943 -79.1153 154.9306)" class="st0" width="19.2" height="1.5"/>
  <rect x="179.5" y="201.6" transform="matrix(0.7943 -0.6075 0.6075 0.7943 -83.8173 157.0918)" class="st0" width="21.3" height="1.5"/>
  <rect x="179.3" y="209.8" transform="matrix(0.7943 -0.6075 0.6075 0.7943 -88.6851 159.2164)" class="st0" width="23.1" height="1.5"/>
  <rect x="179.1" y="218.5" transform="matrix(0.7943 -0.6075 0.6075 0.7943 -93.7757 161.4202)" class="st0" width="24.9" height="1.5"/>
  <rect x="178.8" y="227.2" transform="matrix(0.7889 -0.6145 0.6145 0.7889 -99.5272 166.1783)" class="st0" width="26.6" height="1.5"/>
  <rect x="178.6" y="236.3" transform="matrix(0.7838 -0.621 0.621 0.7838 -105.5498 171.0135)" class="st0" width="28.5" height="1.5"/>
  <rect x="178.3" y="245.8" transform="matrix(0.7838 -0.621 0.621 0.7838 -111.2751 173.5503)" class="st0" width="30.5" height="1.5"/>
  <rect x="178" y="255.3" transform="matrix(0.7786 -0.6275 0.6275 0.7786 -117.6464 178.7182)" class="st0" width="32.9" height="1.5"/>
  <rect x="177.7" y="265.9" transform="matrix(0.7748 -0.6322 0.6322 0.7748 -124.631 183.4111)" class="st0" width="34.8" height="1.5"/>
  <rect x="177.5" y="276.4" transform="matrix(0.7748 -0.6322 0.6322 0.7748 -131.1248 186.1711)" class="st0" width="36.4" height="1.5"/>
  <rect x="177.3" y="287.3" transform="matrix(0.7748 -0.6322 0.6322 0.7748 -137.862 189.0948)" class="st0" width="38.3" height="1.5"/>
  <path class="st0" d="M82.8,223.1l-1.6-1.7c-7.5-7.5-17.6-11.7-28.3-11.7c-9.1,0-17.7,3-24.8,8.6l-2.2-2.7c7.8-6.1,17.1-9.4,27-9.4
	c11.6,0,22.5,4.5,30.8,12.7l1.6,1.7L82.8,223.1z"/>
  <path class="st0" d="M82,235.6l-0.9-0.9c-7.5-7.5-17.6-11.7-28.3-11.7c-9.1,0-17.7,3-24.8,8.6l-2.2-2.7c7.8-6.1,17.1-9.4,27-9.4
	c11.6,0,22.5,4.5,30.8,12.7l0.9,0.9L82,235.6z"/>
  <path class="st0" d="M79.7,247.2c-7.4-6.6-16.9-10.3-26.8-10.3c-9.1,0-17.7,3-24.8,8.6l-2.2-2.7c7.8-6.1,17.1-9.4,27-9.4
	c10.8,0,21.1,4,29.1,11.2L79.7,247.2z"/>
  <path class="st0" d="M247.9,217.4c-6.9-5-15-7.6-23.5-7.6c-7.7,0-15.2,2.2-21.7,6.4l-1.9-2.9c7-4.5,15.2-6.9,23.6-6.9
	c9.3,0,18.1,2.9,25.6,8.3L247.9,217.4z"/>
  <path class="st0" d="M247.9,230.7c-6.9-5-15-7.6-23.5-7.6c-6.9,0-13.6,1.8-19.6,5.1l-1.7-3.1c6.5-3.6,13.8-5.5,21.3-5.5
	c9.3,0,18.1,2.9,25.6,8.3L247.9,230.7z"/>
  <path class="st0" d="M247.9,244.6c-6.9-5-15-7.6-23.5-7.6c-6.3,0-12.3,1.4-17.9,4.2L205,238c6.1-3,12.6-4.6,19.4-4.6
	c9.3,0,18.1,2.9,25.6,8.3L247.9,244.6z"/>
  <path class="st0" d="M138.6,371.8c-62.2,0-112.7-50.6-112.7-112.7V156.9c0-62.2,50.6-112.7,112.7-112.7
	c62.2,0,112.7,50.6,112.7,112.7v102.1C251.4,321.2,200.8,371.8,138.6,371.8z M138.6,47.7c-60.2,0-109.2,49-109.2,109.2v102.1
	c0,60.2,49,109.2,109.2,109.2s109.2-49,109.2-109.2V156.9C247.9,96.7,198.9,47.7,138.6,47.7z"/>
  <g>
	<path class="st0" d="M33.3,63.1c-2.9,1.7-6.6,3.3-9.5,0.7c-2.3-2-2.7-6,0.1-9.3c3-3.4,7.2-3.1,7.2-3.1l0.2,3.6c0,0-3-0.2-4.8,1.8
		c-1.2,1.4-1.3,3.2-0.3,4.2c1.4,1.2,2.9,0.3,5.7-1.2c3.1-1.7,6-2.8,8.9-0.3c2.9,2.5,2.2,6.5-0.5,9.6c-3.6,4.1-8.5,3.1-8.5,3.1
		l0.1-3.6c0,0,3.6,0.7,5.8-1.8c1.2-1.4,1.9-3.3,0.6-4.5C37.1,61.1,35.7,61.8,33.3,63.1z"/>
    <path class="st0" d="M38.8,44.9l-4.5,3.9L32,46.2l11.8-10.3l2.3,2.6l-4.5,3.9l11.7,13.4l-2.8,2.4L38.8,44.9z"/>
    <path class="st0" d="M70.6,31c3.4,5.3,1.9,11.8-3.4,15.1C61.8,49.5,55.4,48,52,42.7s-1.9-11.8,3.4-15.1
		C60.8,24.2,67.2,25.7,70.6,31z M67.4,33c-2.2-3.5-6.4-4.8-10.1-2.5c-3.7,2.3-4.2,6.7-2,10.2c2.2,3.5,6.4,4.8,10.1,2.5
		C69,40.8,69.6,36.4,67.4,33z"/>
    <path class="st0" d="M90.9,27.9l3.2,1.3c0,0-1.3,4.4-6.3,6.5c-5.8,2.4-11.9-0.2-14.3-6c-2.4-5.8,0.2-11.9,6-14.3
		c4.8-2,8.7,0.1,8.7,0.1l-1.4,3.2c0,0-2.7-1.4-6-0.1c-4,1.6-5.4,6-3.8,9.7c1.5,3.8,5.6,5.9,9.5,4.3C90,31.1,90.9,27.9,90.9,27.9z"/>
    <path class="st0" d="M98.2,19.5l5.4-11l4.5-1.1l-5.9,12.1l11.7,8.3l-4.8,1.1l-10.5-7.4l2.2,9.3l-3.6,0.8l-4.8-20.7l3.6-0.8
		L98.2,19.5z"/>
    <path class="st0" d="M120.3,6.2l3.8-0.3l9.9,20.6l-3.7,0.3l-2.3-4.9l-9.1,0.6l-1.6,5.2l-3.7,0.3L120.3,6.2z M119.9,19.1l6.5-0.5
		l-3.8-8L119.9,19.1z"/>
    <path class="st0" d="M140,5.5l6.8,10.9l7.4-10.5l3.4,0.1l-0.6,21.2l-3.7-0.1l0.4-14.2l-7.1,9.9l-6.5-10.3l-0.4,14.2l-3.7-0.1
		l0.6-21.2L140,5.5z"/>
    <path class="st0" d="M183,21.8c-1.4,6.1-6.9,9.7-13.1,8.3c-6.2-1.4-9.7-7-8.3-13.1c1.4-6.1,6.9-9.7,13.1-8.3
		C180.9,10.1,184.4,15.7,183,21.8z M179.3,21c0.9-4-1.1-7.9-5.4-8.9c-4.3-0.9-7.8,1.8-8.6,5.8s1.1,7.9,5.4,8.9
		C175,27.7,178.5,25,179.3,21z M173.1,1.4c1.3,0.3,2.2,1.6,1.9,2.9s-1.6,2.1-2.9,1.8s-2.2-1.6-1.9-2.9
		C170.5,1.9,171.8,1.1,173.1,1.4z M179.3,2.8c1.3,0.3,2.2,1.6,1.9,2.9c-0.3,1.3-1.6,2.1-2.9,1.8c-1.3-0.3-2.2-1.6-1.9-2.9
		S178,2.5,179.3,2.8z"/>
    <path class="st0" d="M190.8,13.6l3.5,1.4l-6.5,16.5l8.6,3.4l-1.3,3.2l-12-4.7L190.8,13.6z"/>
    <path class="st0" d="M206.9,20.4l3.3,1.8l-8.5,15.6l8.1,4.4l-1.6,3L196.8,39L206.9,20.4z"/>
    <path class="st0" d="M227.4,32.9l3,2.3l-5.9,22l-3-2.2l1.4-5.2l-7.4-5.5l-4.6,2.9l-3-2.2L227.4,32.9z M218.7,42.4l5.2,3.9l2.3-8.6
		L218.7,42.4z"/>
    <path class="st0" d="M243.4,46.1L240.3,64l10.6-10.1l2.6,2.7l-15.3,14.6l-2.3-2.4l3.1-17.9L228.3,61l-2.6-2.7l15.3-14.6L243.4,46.1
		z"/>
</g>
  <path class="st0" d="M67.3,370.3c-0.3,0-0.7-0.1-0.9-0.3C28.5,345.7,5.9,304.3,5.9,259.4V155.3c0-20.1,4.4-39.4,13.1-57.3
	c0.4-0.9,1.5-1.2,2.3-0.8c0.9,0.4,1.2,1.5,0.8,2.3c-8.5,17.5-12.8,36.2-12.8,55.8v104.1c0,43.8,22,84,58.9,107.7
	c0.8,0.5,1,1.6,0.5,2.4C68.5,370,67.9,370.3,67.3,370.3z"/>
</svg>
