<svg width="21" height="21" viewBox="0 0 21 21" fill="none" xmlns="http://www.w3.org/2000/svg">
<path d="M1.44386 18.8539L4.65544 11.361C4.73986 11.1643 4.93342 11.0367 5.1474 11.0367H7.18704C6.36154 9.59452 5.68268 7.99838 5.68268 6.64788C5.68268 -0.306816 15.3175 -0.391656 15.3175 6.64788C15.3175 7.99838 14.6387 9.59452 13.8132 11.0367H15.8528C16.0669 11.0367 16.2605 11.1643 16.3448 11.361L19.5564 18.8539C19.7074 19.2063 19.4486 19.6 19.0644 19.6H1.93583C1.55245 19.6 1.29251 19.2072 1.44386 18.8539V18.8539ZM5.50051 12.1071L3.91576 15.8043C3.96533 15.8301 9.12323 18.5085 9.16016 18.5296H10.2806C10.3089 18.4979 10.0681 18.7399 13.5567 15.2517L11.619 14.26C11.224 14.7642 10.9472 15.0846 10.904 15.1343C10.6908 15.3798 10.3093 15.3794 10.0963 15.1343C10.0068 15.0312 8.91564 13.767 7.84076 12.1071H5.50051ZM10.5001 2.4732C8.69555 2.4732 6.75325 3.77969 6.75325 6.64788C6.75325 9.05951 9.45662 12.6485 10.5001 13.9437C11.5436 12.6484 14.247 9.05951 14.247 6.64788C14.247 3.76414 12.3652 2.4732 10.5001 2.4732ZM15.4999 12.1071C12.9069 12.1071 13.2015 12.1075 13.16 12.1063C12.8586 12.5718 12.5559 13.0063 12.2743 13.3929L17.1122 15.869L15.4999 12.1071ZM17.7725 17.4094L14.558 15.7643L11.7923 18.5296H18.2527L17.7725 17.4094ZM6.84018 18.5296L3.4928 16.7908L2.74757 18.5296H6.84018Z" fill="#697A44"/>
<path d="M8.4001 6.3001C8.4001 5.14218 9.34219 4.20001 10.5 4.20001C11.658 4.20001 12.6001 5.14218 12.6001 6.3001C12.6001 7.45802 11.658 8.40001 10.5 8.40001C9.34219 8.40001 8.4001 7.45802 8.4001 6.3001ZM11.2 6.3001C11.2 5.91401 10.8861 5.60001 10.5 5.60001C10.1141 5.60001 9.79998 5.91401 9.79998 6.3001C9.79998 6.68602 10.1141 7.00001 10.5 7.00001C10.8861 7.00001 11.2 6.68602 11.2 6.3001Z" fill="#697A44"/>
</svg>
