<svg width="19" height="19" viewBox="0 0 19 19" fill="none" xmlns="http://www.w3.org/2000/svg">
<path d="M0.35195 17.8145L0.351944 17.8145C0.172272 18.2339 0.480785 18.7 0.935825 18.7H18.0644C18.5205 18.7 18.8276 18.2328 18.6483 17.8145H0.35195ZM0.35195 17.8145L3.56352 10.3216L3.56354 10.3216C3.66372 10.0881 3.89341 9.93667 4.1474 9.93667H6.01542M0.35195 17.8145L6.01542 9.93667M6.01542 9.93667C5.22659 8.53077 4.58268 6.97869 4.58268 5.64788C4.58268 3.88474 5.19404 2.54867 6.11851 1.65214C7.04179 0.756778 8.27158 0.30545 9.49967 0.300043C10.7278 0.294636 11.958 0.735173 12.8816 1.62818C13.8064 2.52232 14.4175 3.86388 14.4175 5.64788C14.4175 6.97869 13.7736 8.53077 12.9848 9.93667H14.8528C15.1069 9.93667 15.3367 10.0881 15.4367 10.3217L18.6483 17.8145L6.01542 9.93667ZM4.56644 11.2071L3.04425 14.7583C3.11063 14.7928 3.21479 14.8469 3.34858 14.9164C4.50266 15.5157 7.86097 17.2599 8.18482 17.4296H9.23754C9.33764 17.3283 9.82774 16.839 12.3889 14.2782L10.6468 13.3866C10.2777 13.855 10.0216 14.1514 9.97953 14.1999L9.90404 14.1343L9.97953 14.1999C9.72633 14.4913 9.27367 14.4908 9.02085 14.1999C9.02085 14.1999 9.02085 14.1999 9.02084 14.1999L4.56644 11.2071ZM4.56644 11.2071H6.78645H4.56644ZM9.50011 1.5732C8.62123 1.5732 7.71015 1.89144 7.01936 2.55698C6.32997 3.22117 5.85325 4.23775 5.85325 5.64788C5.85325 6.82427 6.51572 8.30388 7.3214 9.66347C8.08561 10.9531 8.96816 12.1178 9.50011 12.7839C10.0321 12.1177 10.9146 10.953 11.6788 9.66342C12.4845 8.30384 13.147 6.82427 13.147 5.64788C13.147 4.22887 12.6847 3.21253 12.0033 2.55088C11.3207 1.88808 10.4101 1.5732 9.50011 1.5732ZM15.9112 14.6537L14.4339 11.2071C12.7878 11.2071 12.3391 11.2073 12.2138 11.207C11.9456 11.6194 11.677 12.0066 11.4238 12.3571L15.9112 14.6537ZM17.101 17.4296L16.6948 16.482L13.5772 14.8864L11.0337 17.4296H17.101ZM1.89923 17.4296H5.43072L2.54229 15.9292L1.89923 17.4296Z" fill="white" stroke="white" stroke-width="0.2"/>
</svg>
