<svg viewBox="0 0 48 48" height="48" width="48" xmlns="http://www.w3.org/2000/svg"><g transform="matrix(2,0,0,2,0,0)"><path d="M13,8.5H11.75a.25.25,0,0,0-.25.25v2.5a.25.25,0,0,0,.25.25H13a1.5,1.5,0,0,0,0-3Z" fill="#000" stroke="none" stroke-linecap="round" stroke-linejoin="round" stroke-width="0"></path><path d="M12,0A12,12,0,1,0,24,12,12.013,12.013,0,0,0,12,0Zm1,14.5H11.75a.25.25,0,0,0-.25.25V18a1.5,1.5,0,0,1-3,0V8A2.5,2.5,0,0,1,11,5.5h2a4.5,4.5,0,0,1,0,9Z" fill="#000" stroke="none" stroke-linecap="round" stroke-linejoin="round" stroke-width="0"></path></g></svg>