<svg width="19" height="20" viewBox="0 0 19 20" fill="none" xmlns="http://www.w3.org/2000/svg">
<path d="M11 0V8H19C19 3.58 15.42 0 11 0ZM13 6V2.34C14.7 2.94 16.05 4.29 16.66 6H13ZM4.44 9L3.49 7H1C0.447716 7 0 7.44772 0 8C0 8.55229 0.447715 9 1 9H2.22C2.22 9 4.11 13.07 4.34 13.42C3.24 14.01 2.5 15.17 2.5 16.5C2.5 18.43 4.07 20 6 20C7.76 20 9.22 18.7 9.46 17H11.54C11.78 18.7 13.24 20 15 20C16.93 20 18.5 18.43 18.5 16.5C18.5 15.46 18.04 14.53 17.32 13.89C18.37 12.54 19 10.84 19 9H4.44ZM6 18C5.17 18 4.5 17.33 4.5 16.5C4.5 15.67 5.17 15 6 15C6.83 15 7.5 15.67 7.5 16.5C7.5 17.33 6.83 18 6 18ZM15 18C14.17 18 13.5 17.33 13.5 16.5C13.5 15.67 14.17 15 15 15C15.83 15 16.5 15.67 16.5 16.5C16.5 17.33 15.83 18 15 18ZM15.74 12.66L15.45 13.03C15.31 13.01 15.15 13 15 13C13.61 13 12.4 13.82 11.84 15H9.16C8.66 13.96 7.66 13.2 6.48 13.03L6.04 12.36C5.94 12.19 5.7 11.67 5.37 11H16.66C16.45 11.59 16.14 12.15 15.74 12.66Z" fill="#697A44"/>
</svg>
