<svg width="30" height="32" viewBox="0 0 30 32" fill="none" xmlns="http://www.w3.org/2000/svg">
<path d="M18.4375 22.3125V25.2187C18.4375 25.7326 18.2334 26.2254 17.87 26.5888C17.5067 26.9521 17.0139 27.1562 16.5 27.1562H12.625C12.1111 27.1562 11.6183 26.9521 11.255 26.5888C10.8916 26.2254 10.6875 25.7326 10.6875 25.2187V22.3125" stroke="#FFFBEC" stroke-width="2" stroke-linecap="round" stroke-linejoin="round"/>
<path d="M14.5625 1V2.9375" stroke="#FFFBEC" stroke-width="2" stroke-linecap="round" stroke-linejoin="round"/>
<path d="M1 14.5625H2.9375" stroke="#FFFBEC" stroke-width="2" stroke-linecap="round" stroke-linejoin="round"/>
<path d="M3.90625 4.875L5.32708 6.24029" stroke="#FFFBEC" stroke-width="2" stroke-linecap="round" stroke-linejoin="round"/>
<path d="M28.125 14.5625H26.1875" stroke="#FFFBEC" stroke-width="2" stroke-linecap="round" stroke-linejoin="round"/>
<path d="M25.2187 4.875L23.7979 6.24029" stroke="#FFFBEC" stroke-width="2" stroke-linecap="round" stroke-linejoin="round"/>
<path d="M10.5774 22.3125H18.547C19.9862 21.5981 21.1943 20.4915 22.0319 19.1203C22.8694 17.7491 23.3024 16.1691 23.281 14.5625C23.2402 12.2629 22.3085 10.0689 20.6822 8.44255C19.0558 6.81623 16.8618 5.88455 14.5622 5.84375C12.2617 5.88459 10.067 6.81698 8.4405 8.44441C6.81404 10.0718 5.88294 12.2672 5.84347 14.5677C5.82297 16.1734 6.25644 17.7523 7.09397 19.1225C7.93149 20.4927 9.13899 21.5985 10.5774 22.3125V22.3125Z" stroke="#FFFBEC" stroke-width="2" stroke-linecap="round" stroke-linejoin="round"/>
<path d="M14.5625 27.1562V30.0625" stroke="#FFFBEC" stroke-width="2" stroke-linecap="round" stroke-linejoin="round"/>
<path d="M14.5625 17.4688V22.3125" stroke="#FFFBEC" stroke-width="2" stroke-linecap="round" stroke-linejoin="round"/>
<path d="M11.6562 14.5625L14.5625 17.4687L17.4687 14.5625" stroke="#FFFBEC" stroke-width="2" stroke-linecap="round" stroke-linejoin="round"/>
</svg>
